<svg xmlns="http://www.w3.org/2000/svg" xmlns:xlink="http://www.w3.org/1999/xlink" x="0px" y="0px"
width="300px" height="100px" viewBox="0 0 300 100">
<path style="fill:#FFFFFF;" d="M64.3,65.8H33.5c0.2,3.3,1.4,5.8,3.5,7.6c2.2,1.8,5.1,2.7,8.8,2.7
c4.6,0,8.1-1.1,10.5-3.4l3.9,7.3c-3.5,2.7-8.8,4.1-15.9,4.1c-6.6,0-11.8-1.8-15.6-5.5C24.9,75,23,69.9,23,63.3
c0-6.5,2.1-11.7,6.3-15.7c4.2-4,9.2-6,15.1-6c6.3,0,11.3,1.8,15.1,5.3c3.8,3.6,5.7,8.1,5.7,13.6C65.2,61.6,64.9,63.4,64.3,65.8z
M33.9,58.6h21.2c-0.7-6-4.2-9-10.5-9C38.8,49.6,35.3,52.6,33.9,58.6z"/>
<path style="fill:#FFFFFF;" d="M95.3,83.4V80c-1.4,1.2-3.4,2.1-5.9,3c-2.5,0.8-4.8,1.2-6.9,1.2
c-10,0-15-5.1-15-15.2V42.3h10.1v25.9c0,5.3,2.5,7.9,7.5,7.9c2.3,0,4.4-0.6,6.4-1.7c2-1.1,3.3-2.4,3.9-3.9V42.3h10.1v41.1H95.3z"/>
<path style="fill:#FFFFFF;" d="M135.4,51.2c-1.8-1.1-3.8-1.7-5.9-1.7c-2.3,0-4.4,1-6.2,3c-1.8,2-2.7,4.5-2.7,7.4
v23.4h-10.1V42.3h10.1v3.8c2.8-3,6.6-4.5,11.2-4.5c3.4,0,6.1,0.5,7.9,1.5L135.4,51.2z"/>
<path style="fill:#FFFFFF;" d="M137.1,62.8c0-6.3,1.9-11.4,5.7-15.3c3.8-3.9,8.8-5.9,15.1-5.9
c6.6,0,11.6,1.9,15.3,5.7c3.6,3.8,5.4,9,5.4,15.5c0,6.5-1.8,11.8-5.5,15.6c-3.7,3.9-8.8,5.8-15.2,5.8c-6.6,0-11.7-2-15.3-5.9
C138.9,74.4,137.1,69.2,137.1,62.8z M147.6,62.8c0,9.1,3.4,13.6,10.3,13.6c3.1,0,5.6-1.2,7.5-3.5c1.8-2.4,2.8-5.7,2.8-10.1
c0-8.9-3.4-13.4-10.2-13.4c-3.1,0-5.6,1.2-7.5,3.5C148.5,55.2,147.6,58.5,147.6,62.8z"/>
<path style="fill:#FFFFFF;" d="M188.6,31.2l6.1-2.2v10.2h10.5v5.2h-10.5v25.2c0,5.5,1.6,8.6,5.5,8.6
c1.9,0,3.1-0.2,4.2-0.6l0.4,5.1c-1.3,0.6-3.4,1-6,1c-9.8,0-10.1-9.6-10.1-14.3V44.3h-6.3v-5.2h6.3V31.2z"/>
<path style="fill:#FFFFFF;" d="M210.4,31.4c-2.4,0-4-2-4-4.6c0-2.5,1.7-4.5,4.1-4.5c2.5,0,4,2,4,4.5
C214.5,29.7,212.8,31.4,210.4,31.4z M213.6,82.8h-6.2V39.1h6.2V82.8z"/>
<path style="fill:#FFFFFF;" d="M226.1,82.8h-6.2V18.7h6.2V82.8z"/>
<path style="fill:#FFFFFF;" d="M261.2,80.9c-2.3,1.2-6.6,2.7-12.8,2.7c-11.9,0-18.9-9-18.9-22
c0-13.7,7.2-23.5,18.1-23.5c12.5,0,15.7,12.3,15.7,19.9c0,1.5-0.1,2.6-0.1,3.7h-27.7c0.1,12.1,6.5,16.7,13.8,16.7
c5.1,0,8.1-1.1,10.7-2.2L261.2,80.9z M257.3,56.7c0.1-5.9-2.2-13.6-10.2-13.6c-7.5,0-10.7,7.6-11.3,13.6H257.3z"/>
<path style="fill:#FFFFFF;" d="M271.1,44.4c-2.5,0-4.7-0.9-6.4-2.7c-1.8-1.8-2.7-3.9-2.7-6.4
c0-2.5,0.9-4.7,2.7-6.4c1.8-1.8,3.9-2.7,6.4-2.7c2.5,0,4.7,0.9,6.4,2.7c1.8,1.8,2.7,3.9,2.7,6.4c0,2.5-0.9,4.7-2.7,6.4
C275.8,43.5,273.6,44.4,271.1,44.4z M271.1,27.2c-2.2,0-4.1,0.8-5.7,2.4c-1.6,1.6-2.4,3.5-2.4,5.7c0,2.2,0.8,4.1,2.4,5.7
c1.6,1.6,3.5,2.4,5.7,2.4c2.2,0,4.1-0.8,5.7-2.4c1.6-1.6,2.4-3.5,2.4-5.7c0-2.2-0.8-4.1-2.4-5.7C275.2,28,273.4,27.2,271.1,27.2z
M275.6,40.9h-2l-1.3-2.8c-0.6-1.4-1.3-2.1-2.1-2.1h-1.1v4.9h-1.6V29.4h3.3c1.4,0,2.4,0.3,3.1,0.9c0.7,0.6,1.1,1.3,1.1,2.3
c0,0.8-0.3,1.5-0.8,2c-0.5,0.6-1.2,0.9-2.2,1.1v0c0.6,0.1,1.3,0.9,1.9,2.1L275.6,40.9z M269.2,30.7v4h1.7c1.6,0,2.4-0.7,2.4-2
c0-0.7-0.2-1.2-0.6-1.5c-0.4-0.3-1.1-0.4-2-0.4H269.2z"/>
<path style="fill:#FFFFFF;" d="M26,33h-2.1V21.7H26V33z M26.1,27.3l4.4-5.6h1.2l-3.8,4.8l4.1,6.5h-2.4L26.1,27.3z"/>
<path style="fill:#FFFFFF;" d="M35.3,33h-2.1V21.7h2.1V33z"/>
<path style="fill:#FFFFFF;" d="M40.2,32.3h5.5V33h-7.7V21.7h7.6v0.7h-5.4v4.4h5.2v0.7h-5.2V32.3z"/>
<path style="fill:#FFFFFF;" d="M39.4,20.8l1.8-2.6h1.3l1.8,2.6h-0.8l-1.7-1.9l-1.6,1.9H39.4z M40.9,35.2
c0-0.3,0.1-0.5,0.3-0.7c0.2-0.2,0.4-0.3,0.7-0.3c0.3,0,0.5,0.1,0.7,0.3c0.2,0.2,0.3,0.4,0.3,0.7c0,0.3-0.1,0.5-0.3,0.7
c-0.2,0.2-0.4,0.3-0.7,0.3c-0.3,0-0.5-0.1-0.7-0.3C41,35.7,40.9,35.5,40.9,35.2z"/>
<path style="fill:#FFFFFF;" d="M51.2,33h-2.1V22.4h-2.2v-0.7h6.6v0.7h-2.3V33z"/>
<path style="fill:#FFFFFF;" d="M64.4,33h-2.1V22.4H60v-0.7h6.6v0.7h-2.3V33z"/>
<path style="fill:#FFFFFF;" d="M76.6,33h-2.2l-1.2-3h-3.9l-1.1,3l-1,0l4.6-11.6L76.6,33z M72.9,29.3l-1.6-4.1l-1.6,4.2L72.9,29.3z"/>
<path style="fill:#FFFFFF;" d="M72.8,18.2h1.5l-2.3,2.7h-0.8L72.8,18.2z"/>
<path style="fill:#FFFFFF;" d="M87.9,23.7l-0.6,0.5c-0.5-0.6-0.9-1.1-1.4-1.4c-0.6-0.4-1.2-0.6-1.9-0.6
c-1.4,0-2.4,0.5-3.1,1.4c-0.7,0.9-1.1,2.2-1.1,3.9c0,1.4,0.3,2.5,1,3.5c0.7,1,1.7,1.6,2.9,1.6c0.8,0,1.6-0.2,2.3-0.7
c0.7-0.4,1.2-1,1.5-1.8l0.7,0.4c-0.5,1-1.2,1.8-2,2.3c-0.8,0.5-1.8,0.7-2.9,0.7c-1.6,0-2.9-0.6-4.1-1.7c-1.1-1.1-1.7-2.5-1.7-4.1
c0-1.8,0.6-3.3,1.7-4.4c1.1-1.1,2.6-1.7,4.3-1.7c0.9,0,1.7,0.2,2.5,0.6C86.7,22.5,87.4,23,87.9,23.7z"/>
<path style="fill:#FFFFFF;" d="M103.4,27.5h2.1v4.1c-0.7,0.6-1.5,1-2.3,1.3c-0.8,0.3-1.7,0.4-2.7,0.4
c-1.6,0-2.9-0.6-4.1-1.7c-1.1-1.1-1.7-2.5-1.7-4.1c0-1.8,0.6-3.3,1.7-4.4c1.1-1.1,2.6-1.7,4.3-1.7c0.9,0,1.7,0.2,2.5,0.6
c0.8,0.4,1.4,1,1.9,1.7l-0.6,0.5c-0.5-0.6-0.9-1.1-1.4-1.4c-0.6-0.4-1.2-0.6-1.9-0.6c-1.4,0-2.4,0.5-3.1,1.4
c-0.7,0.9-1.1,2.2-1.1,3.9c0,1.5,0.3,2.7,1,3.7c0.7,1,1.7,1.6,3,1.6c0.5,0,1-0.1,1.4-0.2c0.4-0.2,0.8-0.4,0.9-0.6V27.5z"/>
<path style="fill:#FFFFFF;" d="M115.9,33h-2.2l-1.2-3h-3.9l-1.1,3l-1,0l4.6-11.6L115.9,33z M112.2,29.3l-1.6-4.1l-1.6,4.2L112.2,29.3z"/>
<path style="fill:#FFFFFF;" d="M110.6,35.2c0-0.3,0.1-0.5,0.3-0.7c0.2-0.2,0.4-0.3,0.7-0.3c0.3,0,0.5,0.1,0.7,0.3
c0.2,0.2,0.3,0.4,0.3,0.7c0,0.3-0.1,0.5-0.3,0.7c-0.2,0.2-0.4,0.3-0.7,0.3c-0.3,0-0.5-0.1-0.7-0.3
C110.6,35.7,110.6,35.5,110.6,35.2z"/>
<path style="fill:#FFFFFF;" d="M127.1,23.7l-0.6,0.5c-0.5-0.6-0.9-1.1-1.4-1.4c-0.6-0.4-1.2-0.6-1.9-0.6
c-1.4,0-2.4,0.5-3.1,1.4c-0.7,0.9-1.1,2.2-1.1,3.9c0,1.4,0.3,2.5,1,3.5c0.7,1,1.7,1.6,2.9,1.6c0.8,0,1.6-0.2,2.3-0.7
c0.7-0.4,1.2-1,1.5-1.8l0.7,0.4c-0.5,1-1.2,1.8-2,2.3c-0.8,0.5-1.8,0.7-2.9,0.7c-1.6,0-2.9-0.6-4.1-1.7c-1.1-1.1-1.7-2.5-1.7-4.1
c0-1.8,0.6-3.3,1.7-4.4c1.1-1.1,2.6-1.7,4.3-1.7c0.9,0,1.7,0.2,2.5,0.6C126,22.5,126.6,23,127.1,23.7z"/>
<path style="fill:#FFFFFF;" d="M131,33h-2.1V21.7h2.1v5h4.6v-5h2.1V33h-2.1v-5.4H131V33z"/>
<path style="fill:#FFFFFF;" d="M146.1,33V21.7h2.3l3.2,7.6l3-7.6h2.2V33h-2.1v-9.1l-3.7,9.4l-4-9.5l0,9.2H146.1z"/>
<path style="fill:#FFFFFF;" d="M161.8,32.3h5.5V33h-7.7V21.7h7.6v0.7h-5.4v4.4h5.2v0.7h-5.2V32.3z"/>
<path style="fill:#FFFFFF;" d="M170.1,33h-0.9V21.7h1.9l5.9,7.8l0-7.8h0.9V33H177l-6.9-9L170.1,33z"/>
</svg>
