<svg xmlns="http://www.w3.org/2000/svg" xmlns:xlink="http://www.w3.org/1999/xlink" x="0px" y="0px"
width="140px" height="140px" viewBox="0 0 140 140">
<path style="fill:#2D6179;" d="M123.5,97c-4.1,8-10.1,15.1-17.5,20.4c-1.1,0.8-2.6,0.6-3.3-0.5c-0.8-1.1-0.6-2.6,0.5-3.3
c6.7-5,12.3-11.4,16-18.8c4-7.7,6-16,6-24.8c0.1-29.7-24.2-54-54.1-54S16.9,40.2,16.9,70s24.3,54.1,54.1,54.1
c1.3,0,2.4,1.1,2.4,2.4s-1.1,2.4-2.4,2.4c-32.6,0-59-26.4-59-59s26.4-59,59-59s59,26.4,59,59C130,79.5,127.8,88.8,123.5,97z"/>
<path style="fill:#2D6179;" d="M55.9,97.4c-0.7-0.5-1.2-1.2-1.2-2.1V42.7c0-1.3,1.1-2.4,2.4-2.4c1.3,0,2.4,1.1,2.4,2.4v48.5L95,70
L68.9,53.2c-1.1-0.7-1.4-2.2-0.7-3.3c0.7-1.1,2.2-1.4,3.3-0.7l29.4,19c0.7,0.5,1.1,1.2,1.1,2s-0.5,1.7-1.2,2L58.3,97.4
C57.6,97.9,56.6,97.9,55.9,97.4z"/>
</svg>
